<svg xmlns="http://www.w3.org/2000/svg" xmlns:xlink="http://www.w3.org/1999/xlink" viewBox="0 0 123.6 63.05"><defs><style>.cls-1{fill:url(#Naamloos_verloop_14);}.cls-2{fill:url(#Naamloos_verloop_35);}.cls-3{fill:url(#Naamloos_verloop_14-2);}.cls-4{fill:url(#Naamloos_verloop_14-3);}</style><linearGradient id="Naamloos_verloop_14" x1="128.25" y1="-2.7" x2="68.17" y2="65.29" gradientUnits="userSpaceOnUse"><stop offset="0" stop-color="#fe5858"/><stop offset="1" stop-color="#ee9617"/></linearGradient><linearGradient id="Naamloos_verloop_35" x1="47.46" y1="57.01" x2="74.73" y2="6.41" gradientUnits="userSpaceOnUse"><stop offset="0" stop-color="#e25858"/><stop offset="1" stop-color="#ee9617"/></linearGradient><linearGradient id="Naamloos_verloop_14-2" x1="0.35" y1="2.39" x2="60.44" y2="72.62" xlink:href="#Naamloos_verloop_14"/><linearGradient id="Naamloos_verloop_14-3" x1="41.53" y1="49.7" x2="63.35" y2="62.85" xlink:href="#Naamloos_verloop_14"/></defs><title>Middel 3</title><g id="Laag_2" data-name="Laag 2"><g id="Laag_1-2" data-name="Laag 1"><path class="cls-1" d="M72,60.41,103.47,6.22s5.94-11.61,20.13-3.1L92.9,56.54s-5.17,9.28-16.52,5.67Z"/><path class="cls-2" d="M43.41,46.5l17-29.19S67.09,6.48,80.51,13.7L57.29,54.47a17,17,0,0,1-5.41,5.86"/><path class="cls-3" d="M51.88,60.33a14.32,14.32,0,0,1-8,2.4s-9.81,0-13.42-6.71L0,2.86s8.77-5.16,16.51.52c0,0,1.55.51,4.65,4.64L43.41,46.5Z"/><line class="cls-4" x1="43.61" y1="46.47" x2="51.87" y2="60.41"/></g></g></svg>