<svg xmlns="http://www.w3.org/2000/svg" viewBox="0 0 19 19"><defs><style>.cls-1{fill:#161719;}</style></defs><title>Middel 27</title><g id="Laag_2" data-name="Laag 2"><g id="Laag_1-2" data-name="Laag 1"><path class="cls-1" d="M11.18,9.5,18.65,2a1.18,1.18,0,0,0,0-1.68A1.18,1.18,0,0,0,17,.35L9.5,7.82,2,.35A1.18,1.18,0,0,0,.35.35,1.18,1.18,0,0,0,.35,2L7.82,9.5.35,17a1.18,1.18,0,0,0,0,1.68,1.18,1.18,0,0,0,.84.35A1.2,1.2,0,0,0,2,18.65L9.5,11.18,17,18.65a1.2,1.2,0,0,0,.84.35,1.19,1.19,0,0,0,.84-2Z"/></g></g></svg>