<svg xmlns="http://www.w3.org/2000/svg" viewBox="0 0 15.48 29.55"><defs><style>.cls-1{fill:#f14742;}.cls-2{fill:#fff;}</style></defs><title>Middel 12</title><g id="Laag_2" data-name="Laag 2"><g id="Laag_1-2" data-name="Laag 1"><path class="cls-1" d="M15.48,0H0V29.55l7.14-4.61a1.11,1.11,0,0,1,1.21,0l7.13,4.61Z"/><path class="cls-2" d="M9.22,7.64l-.39-.11a.17.17,0,0,0-.14,0,.18.18,0,0,0-.1.12l-2.31,8a.16.16,0,0,0,0,.15.14.14,0,0,0,.12.09L6.8,16A.19.19,0,0,0,7,15.88l2.31-8a.22.22,0,0,0,0-.16A.22.22,0,0,0,9.22,7.64Z"/><path class="cls-2" d="M5.75,9.2a.2.2,0,0,0-.06-.14l-.31-.31a.18.18,0,0,0-.28,0L2.21,11.63a.2.2,0,0,0-.06.15.2.2,0,0,0,.06.14L5.1,14.8a.18.18,0,0,0,.28,0l.31-.3a.22.22,0,0,0,.06-.15.2.2,0,0,0-.06-.14L3.26,11.78,5.69,9.34A.2.2,0,0,0,5.75,9.2Z"/><path class="cls-2" d="M13.42,11.63,10.54,8.75a.23.23,0,0,0-.15-.07.21.21,0,0,0-.14.07l-.31.31a.18.18,0,0,0-.06.14.2.2,0,0,0,.06.14l2.44,2.44L9.94,14.21a.2.2,0,0,0-.06.14.22.22,0,0,0,.06.15l.31.3a.17.17,0,0,0,.14.07.19.19,0,0,0,.15-.07l2.88-2.88a.2.2,0,0,0,.06-.14A.2.2,0,0,0,13.42,11.63Z"/></g></g></svg>