<svg xmlns="http://www.w3.org/2000/svg" viewBox="0 0 32 32"><defs><style>.cls-1{fill:#fff;}</style></defs><title>Middel 23</title><g id="Laag_2" data-name="Laag 2"><g id="Laag_1-2" data-name="Laag 1"><path class="cls-1" d="M16.75,7.53a3.73,3.73,0,0,0-3.39.75,4,4,0,0,0-1.5,3.2.94.94,0,0,0,1.88,0,2,2,0,0,1,.75-1.69,2.19,2.19,0,0,1,1.89-.38,2.22,2.22,0,0,1,1.69,1.7,2,2,0,0,1-.75,2.25,5.61,5.61,0,0,0-2.26,4.52.89.89,0,0,0,.94.94c.56,0,.94-.37.75-.94a4.15,4.15,0,0,1,1.7-3A4.08,4.08,0,0,0,20,10.73a4.26,4.26,0,0,0-3.2-3.2Z"/><path class="cls-1" d="M15.25,22.78a1.1,1.1,0,0,0-.19.75.67.67,0,0,0,.19.56,1.41,1.41,0,0,0,.75.38c.19,0,.56-.19.56-.38.19,0,.38-.37.38-.56a1,1,0,0,0-.38-.75.9.9,0,0,0-1.31,0Z"/><path class="cls-1" d="M16,0A16,16,0,1,0,32,16,16,16,0,0,0,16,0Zm0,30.12A14.22,14.22,0,0,1,1.88,16,14.22,14.22,0,0,1,16,1.88,14.22,14.22,0,0,1,30.12,16,14.22,14.22,0,0,1,16,30.12Z"/></g></g></svg>