<svg xmlns="http://www.w3.org/2000/svg" viewBox="0 0 29.69 32.03"><defs><style>.cls-1{fill:#fff;}</style></defs><title>Middel 24</title><g id="Laag_2" data-name="Laag 2"><g id="Laag_1-2" data-name="Laag 1"><path class="cls-1" d="M14.3,30.2H6a4.12,4.12,0,0,1-4.11-4.12V6A4.11,4.11,0,0,1,6,1.84h8.49a.92.92,0,0,0,0-1.84H6A6,6,0,0,0,0,6V26.08a6,6,0,0,0,6,6H14.3a.92.92,0,1,0,0-1.83Z"/><path class="cls-1" d="M29.42,15.37,23.59,9.54a.92.92,0,1,0-1.3,1.3l4.27,4.27H7.94a.92.92,0,1,0,0,1.83H26.56l-4.27,4.27a.92.92,0,0,0,.65,1.57.89.89,0,0,0,.64-.27l5.84-5.83A.93.93,0,0,0,29.42,15.37Z"/></g></g></svg>