<svg xmlns="http://www.w3.org/2000/svg" viewBox="0 0 33.33 25"><defs><style>.cls-1{fill:#161719;}</style></defs><title>Middel 4</title><g id="Laag_2" data-name="Laag 2"><g id="Laag_1-2" data-name="Laag 1"><path class="cls-1" d="M33.33,20.83a4.15,4.15,0,0,1-.53,2L22.27,11.06,32.68,2a4.12,4.12,0,0,1,.65,2.22V20.83ZM16.67,13.2,31.15.52a4.14,4.14,0,0,0-2-.52h-25a4.15,4.15,0,0,0-2,.52Zm4-.77-3.36,2.94a1,1,0,0,1-.68.26,1.06,1.06,0,0,1-.69-.26l-3.35-2.94L2,24.36a4.13,4.13,0,0,0,2.2.64h25a4.07,4.07,0,0,0,2.19-.64ZM.65,2A4.12,4.12,0,0,0,0,4.17V20.83a4.05,4.05,0,0,0,.54,2L11.06,11.06Z"/></g></g></svg>