<svg xmlns="http://www.w3.org/2000/svg" viewBox="0 0 24.44 14"><defs><style>.cls-1{fill:#b7b7b7;}</style></defs><title>Middel 9</title><g id="Laag_2" data-name="Laag 2"><g id="Laag_1-2" data-name="Laag 1"><path class="cls-1" d="M21.08,3.68a12.6,12.6,0,0,0-17.8,0L0,7l3.36,3.36a12.6,12.6,0,0,0,17.8,0L24.44,7Zm-.5,6.05a11.78,11.78,0,0,1-16.64,0L1.17,7l2.69-2.7a11.79,11.79,0,0,1,16.64,0L23.27,7Z"/><path class="cls-1" d="M11.8,3.68A2.89,2.89,0,0,0,8.91,6.57a.41.41,0,1,0,.82,0A2.07,2.07,0,0,1,11.8,4.51a.41.41,0,0,0,.41-.41A.42.42,0,0,0,11.8,3.68Z"/><path class="cls-1" d="M12.21,1.62A5.37,5.37,0,1,0,17.58,7,5.38,5.38,0,0,0,12.21,1.62Zm0,9.91A4.54,4.54,0,1,1,16.75,7,4.54,4.54,0,0,1,12.21,11.53Z"/></g></g></svg>