<svg xmlns="http://www.w3.org/2000/svg" viewBox="0 0 26.71 31.24"><defs><style>.cls-1{fill:#fff;}</style></defs><title>Middel 18</title><g id="Laag_2" data-name="Laag 2"><g id="Laag_1-2" data-name="Laag 1"><path class="cls-1" d="M13.35,8.11a9.78,9.78,0,1,0,9.78,9.78A9.79,9.79,0,0,0,13.35,8.11ZM14,26.38v-.82a.64.64,0,0,0-1.27,0v.82a8.53,8.53,0,0,1-7.85-7.86h.81a.64.64,0,0,0,.64-.63.64.64,0,0,0-.64-.64H4.87A8.52,8.52,0,0,1,12.72,9.4v.82a.64.64,0,0,0,1.27,0V9.4a8.52,8.52,0,0,1,7.85,7.85H21a.64.64,0,0,0-.64.64.64.64,0,0,0,.64.63h.81A8.53,8.53,0,0,1,14,26.38Z"/><path class="cls-1" d="M14,4.55V3.73h1a.64.64,0,0,0,.63-.64V.63A.63.63,0,0,0,15,0H11.7a.63.63,0,0,0-.63.63V3.09a.64.64,0,0,0,.63.64h1v.82a13.36,13.36,0,1,0,1.27,0ZM12.34,2.46V1.27h2V2.46Zm1,27.45a12,12,0,1,1,12-12A12,12,0,0,1,13.35,29.91Z"/><path class="cls-1" d="M18,13.23a.63.63,0,0,0-.71-.13l-5.8,2.63h0l0,0h0l0,0,0,0-.08.08,0,0,0,0,0,0v0l0,0v0L8.56,21.84a.65.65,0,0,0,.13.71.65.65,0,0,0,.45.19.58.58,0,0,0,.26-.06l5.8-2.63h0l0,0h0l0,0,0,0h0l.08-.09,0,0,0,0,0,0v0l0,0h0l2.64-5.79A.64.64,0,0,0,18,13.23Zm-7.6,7.6L12,17.4l1.87,1.87Zm4.32-2.46-1.87-1.86L16.29,15Z"/></g></g></svg>