<svg xmlns="http://www.w3.org/2000/svg" viewBox="0 0 24.17 29"><defs><style>.cls-1{fill:#161719;}</style></defs><title>Middel 5</title><g id="Laag_2" data-name="Laag 2"><g id="Laag_1-2" data-name="Laag 1"><path class="cls-1" d="M24.08,24.46,22,21a10.23,10.23,0,0,1-1.47-5.28v-3a8.46,8.46,0,0,0-6-8.1V2.42a2.42,2.42,0,1,0-4.83,0V4.59a8.47,8.47,0,0,0-6,8.1v3A10.24,10.24,0,0,1,2.16,21L.09,24.46a.58.58,0,0,0,0,.61.61.61,0,0,0,.52.31h23a.61.61,0,0,0,.53-.31A.63.63,0,0,0,24.08,24.46Z"/><path class="cls-1" d="M8.28,26.58a4.2,4.2,0,0,0,7.61,0Z"/></g></g></svg>