<svg xmlns="http://www.w3.org/2000/svg" viewBox="0 0 30.85 30.85"><defs><style>.cls-1{fill:#fff;}</style></defs><title>Middel 22</title><g id="Laag_2" data-name="Laag 2"><g id="Laag_1-2" data-name="Laag 1"><path class="cls-1" d="M29.27,12.19l-2.16-.37a12.89,12.89,0,0,0-.87-2.1l1.27-1.79a1.9,1.9,0,0,0-.2-2.45L25.39,3.56A1.92,1.92,0,0,0,24,3a1.87,1.87,0,0,0-1.1.35l-1.8,1.28A12.11,12.11,0,0,0,19,3.73l-.36-2.14A1.91,1.91,0,0,0,16.72,0H14a1.9,1.9,0,0,0-1.88,1.59l-.37,2.19a12.14,12.14,0,0,0-2.1.89L7.89,3.39a1.92,1.92,0,0,0-2.46.21L3.51,5.52A1.9,1.9,0,0,0,3.3,8L4.59,9.78a11.68,11.68,0,0,0-.86,2.11l-2.14.36A1.91,1.91,0,0,0,0,14.13v2.72a1.91,1.91,0,0,0,1.59,1.88l2.19.37a12.48,12.48,0,0,0,.89,2.1L3.4,23a1.9,1.9,0,0,0,.2,2.46l1.92,1.92a1.9,1.9,0,0,0,1.35.56A1.81,1.81,0,0,0,8,27.54l1.81-1.28a12.46,12.46,0,0,0,2,.83l.36,2.17a1.91,1.91,0,0,0,1.88,1.59h2.72a1.89,1.89,0,0,0,1.88-1.59L19,27.09a11.34,11.34,0,0,0,2.1-.87l1.79,1.28a1.9,1.9,0,0,0,1.11.35h0a1.89,1.89,0,0,0,1.34-.56l1.92-1.92a1.9,1.9,0,0,0,.21-2.45l-1.28-1.79A11.72,11.72,0,0,0,27.09,19l2.17-.36a1.89,1.89,0,0,0,1.59-1.88V14.07A1.88,1.88,0,0,0,29.27,12.19Zm-.15,4.59A.16.16,0,0,1,29,17l-2.71.45a.86.86,0,0,0-.69.64,10.63,10.63,0,0,1-1.12,2.7.86.86,0,0,0,0,1l1.59,2.24a.18.18,0,0,1,0,.22l-1.92,1.92a.19.19,0,0,1-.12.05.15.15,0,0,1-.1,0L21.69,24.5a.85.85,0,0,0-.94,0A10.7,10.7,0,0,1,18,25.58a.85.85,0,0,0-.63.69L17,29a.16.16,0,0,1-.17.14H14.07A.16.16,0,0,1,13.9,29l-.45-2.71a.86.86,0,0,0-.64-.69,11,11,0,0,1-2.64-1.08.88.88,0,0,0-.44-.12.85.85,0,0,0-.5.16L7,26.15a.16.16,0,0,1-.09,0,.21.21,0,0,1-.13-.05L4.83,24.21a.2.2,0,0,1,0-.22L6.4,21.76a.88.88,0,0,0,0-1A10.62,10.62,0,0,1,5.3,18.12a.89.89,0,0,0-.69-.64L1.88,17a.16.16,0,0,1-.14-.16V14.13A.16.16,0,0,1,1.88,14l2.69-.46a.84.84,0,0,0,.7-.64,10.64,10.64,0,0,1,1.1-2.71.85.85,0,0,0,0-.94L4.72,7a.2.2,0,0,1,0-.22L6.66,4.83a.16.16,0,0,1,.13,0,.14.14,0,0,1,.09,0L9.11,6.39a.86.86,0,0,0,1,0A10.24,10.24,0,0,1,12.75,5.3a.88.88,0,0,0,.64-.7l.47-2.72A.16.16,0,0,1,14,1.73h2.72a.16.16,0,0,1,.16.15l.46,2.68a.87.87,0,0,0,.64.71A10.22,10.22,0,0,1,20.76,6.4a.88.88,0,0,0,.95,0l2.23-1.6a.16.16,0,0,1,.09,0,.17.17,0,0,1,.12,0L26.08,6.7a.18.18,0,0,1,0,.22L24.5,9.16a.88.88,0,0,0,0,.95,10.17,10.17,0,0,1,1.13,2.7.85.85,0,0,0,.69.63L29,13.9a.16.16,0,0,1,.14.17v2.71Z"/><path class="cls-1" d="M15.43,8.76a6.66,6.66,0,1,0,6.66,6.66A6.67,6.67,0,0,0,15.43,8.76Zm0,11.58a4.92,4.92,0,1,1,4.92-4.92A4.92,4.92,0,0,1,15.43,20.34Z"/></g></g></svg>