<svg xmlns="http://www.w3.org/2000/svg" viewBox="0 0 16.44 14.2"><defs><style>.cls-1{fill:#b7b7b7;}</style></defs><title>Middel 8</title><g id="Laag_2" data-name="Laag 2"><g id="Laag_1-2" data-name="Laag 1"><path class="cls-1" d="M15.7,7.85a.35.35,0,0,0-.38.37v4.86a.35.35,0,0,1-.37.37H1.49a.35.35,0,0,1-.37-.37V8.22a.35.35,0,0,0-.37-.37.35.35,0,0,0-.38.37v4.86A1.1,1.1,0,0,0,1.49,14.2H15a1.1,1.1,0,0,0,1.12-1.12V8.22A.35.35,0,0,0,15.7,7.85Z"/><path class="cls-1" d="M15.32,2.62H1.12A1.1,1.1,0,0,0,0,3.74V6.13A1.11,1.11,0,0,0,.86,7.21L6.73,8.52v1.2a.35.35,0,0,0,.37.37H9.34a.35.35,0,0,0,.38-.37V8.52l5.86-1.31a1.11,1.11,0,0,0,.86-1.08V3.74A1.09,1.09,0,0,0,15.32,2.62ZM9,9.34H7.47V7.85H9ZM15.7,6.13a.36.36,0,0,1-.3.37L9.72,7.77v-.3a.35.35,0,0,0-.38-.37H7.1a.35.35,0,0,0-.37.37v.3L1.05,6.5a.35.35,0,0,1-.3-.37V3.74a.35.35,0,0,1,.37-.38h14.2a.36.36,0,0,1,.38.38Z"/><path class="cls-1" d="M10.09,0H6.35A1.11,1.11,0,0,0,5.23,1.12v.37a.38.38,0,1,0,.75,0V1.12A.35.35,0,0,1,6.35.75h3.74a.35.35,0,0,1,.37.37v.37a.38.38,0,1,0,.75,0V1.12A1.1,1.1,0,0,0,10.09,0Z"/></g></g></svg>