<svg xmlns="http://www.w3.org/2000/svg" viewBox="0 0 31.26 27"><defs><style>.cls-1{fill:#fff;}</style></defs><title>Middel 20</title><g id="Laag_2" data-name="Laag 2"><g id="Laag_1-2" data-name="Laag 1"><path class="cls-1" d="M29.84,14.92a.68.68,0,0,0-.71.71v9.24a.67.67,0,0,1-.71.71H2.84a.68.68,0,0,1-.71-.71V15.63a.67.67,0,0,0-.71-.71.67.67,0,0,0-.71.71v9.24A2.09,2.09,0,0,0,2.84,27H28.42a2.09,2.09,0,0,0,2.13-2.13V15.63A.67.67,0,0,0,29.84,14.92Z"/><path class="cls-1" d="M29.13,5h-27A2.1,2.1,0,0,0,0,7.11v4.54a2.13,2.13,0,0,0,1.63,2.06L12.79,16.2v2.27a.67.67,0,0,0,.71.71h4.26a.67.67,0,0,0,.71-.71V16.2l11.16-2.49a2.13,2.13,0,0,0,1.63-2.06V7.11A2.1,2.1,0,0,0,29.13,5ZM17.05,17.76H14.21V14.92h2.84Zm12.79-6.11a.68.68,0,0,1-.57.71l-10.8,2.42v-.57a.67.67,0,0,0-.71-.71H13.5a.67.67,0,0,0-.71.71v.57L2,12.36a.68.68,0,0,1-.57-.71V7.11a.68.68,0,0,1,.71-.72h27a.67.67,0,0,1,.71.72Z"/><path class="cls-1" d="M19.18,0h-7.1A2.09,2.09,0,0,0,10,2.13v.71a.71.71,0,0,0,1.42,0V2.13a.67.67,0,0,1,.71-.71h7.1a.67.67,0,0,1,.71.71v.71a.72.72,0,0,0,1.43,0V2.13A2.1,2.1,0,0,0,19.18,0Z"/></g></g></svg>